<?xml version="1.0" encoding="utf-8"?>
<!-- Generator: Adobe Illustrator 27.0.0, SVG Export Plug-In . SVG Version: 6.00 Build 0)  -->
<svg version="1.1" id="Layer_1" xmlns="http://www.w3.org/2000/svg" xmlns:xlink="http://www.w3.org/1999/xlink" x="0px" y="0px"
	 viewBox="0 0 493.8 60" style="enable-background:new 0 0 493.8 60;" xml:space="preserve">
<style type="text/css">
	.st0{fill:#000000;}
	.st1{fill:#0075FF;}
	.st2{fill:#FFC300;}
</style>
<g id="Layer_2-2">
	<g id="Layer_1-2">
		<g>
			<path class="st0" d="M32.4,56.2v-0.7c-1.3,1.2-2.7,2.2-4.4,2.8c-1.7,0.6-3.5,0.9-5.3,0.9c-5.4,0.1-10.6-2.1-14.3-6.1
				c-3.8-4-5.9-9.3-5.8-14.9c-0.1-5.5,1.9-10.9,5.8-14.9c3.7-4,8.9-6.2,14.3-6.1c1.8,0,3.6,0.3,5.3,0.9c1.6,0.6,3.1,1.6,4.4,2.8
				v-0.7c0-1,0.7-1.8,1.7-1.9h10.2c0.5,0,1,0.2,1.3,0.5c0.4,0.4,0.5,0.8,0.5,1.3v35.8c0,0.5-0.2,1-0.5,1.3c-0.3,0.4-0.8,0.6-1.3,0.6
				H34.3c-0.5,0-1-0.2-1.4-0.6C32.6,57.2,32.4,56.7,32.4,56.2L32.4,56.2L32.4,56.2z M16.6,38.3c-0.1,2.2,0.8,4.3,2.3,5.8
				c3,3.1,8.1,3.2,11.2,0.2c0.1-0.1,0.1-0.1,0.2-0.2c3.1-3.2,3.1-8.3,0-11.5c-3.1-3.1-8.1-3.2-11.2-0.1L19,32.6
				C17.4,34.1,16.6,36.2,16.6,38.3z"/>
			<path class="st0" d="M70.6,47c1.5,0.1,3-0.5,4.1-1.6c1-1.3,1.5-2.9,1.4-4.6V20.2c0-0.5,0.2-0.9,0.6-1.2c0.4-0.3,0.9-0.5,1.3-0.5
				h10c0.5,0,1,0.2,1.3,0.5c0.4,0.3,0.6,0.7,0.6,1.2v22.5c0.1,4.6-1.8,8.9-5.2,11.9c-3.5,3.1-8.2,4.7-14,4.7
				c-5.9,0-10.6-1.6-14.3-4.7c-3.5-2.9-5.5-7.3-5.4-11.9V20.2c0-0.5,0.2-0.9,0.6-1.2c0.4-0.3,0.8-0.5,1.3-0.5h10
				c0.5,0,1,0.2,1.4,0.5c0.4,0.3,0.6,0.7,0.6,1.2v20.6c-0.1,1.7,0.5,3.3,1.5,4.5C67.5,46.5,69,47.1,70.6,47z"/>
			<path class="st0" d="M112.6,58.9c-4.3,0-7.8-1.1-10.4-3.4c-2.6-2.3-3.9-5.4-3.9-9.4V30h-4.1c-0.5,0-1-0.2-1.3-0.6
				c-0.3-0.4-0.5-0.8-0.5-1.3v-2.9c0-0.7,0.1-1.4,0.2-2c0.2-0.6,0.5-1.1,0.9-1.5l9.8-10.9c0.6-0.7,1.3-1.3,2.1-1.8
				c0.7-0.3,1.4-0.4,2.2-0.4h2.7c1,0,1.9,0.8,1.9,1.8v8.2h8.7c0.5,0,1,0.2,1.3,0.5c0.4,0.4,0.6,0.8,0.6,1.3v7.7c0,0.5-0.2,1-0.6,1.4
				c-0.4,0.4-0.8,0.6-1.3,0.6h-8.7v13.2c-0.1,0.8,0.2,1.7,0.8,2.3c0.6,0.6,1.3,0.9,2.1,0.8c0.6,0,1.1-0.1,1.7-0.3
				c0.7-0.3,1.4-0.6,2-1c0.9-0.8,2.4-0.7,3.2,0.3c0.1,0.1,0.2,0.3,0.3,0.5l3.5,5.2c0.4,0.5,0.6,1.2,0.6,1.8c0,0.6-0.3,1.2-0.7,1.6
				c-1.6,1.5-3.5,2.7-5.6,3.4C117.6,58.5,115.1,58.9,112.6,58.9z"/>
			<path class="st0" d="M149.3,29.4c-1.7-0.1-3.4,0.6-4.6,1.8c-1.3,1.3-1.9,3-1.8,4.7v20.3c0,1-0.7,1.8-1.7,1.9h-10.3
				c-1,0.1-1.8-0.7-1.9-1.7V4c-0.1-1,0.7-1.8,1.7-1.9h10.3c1-0.1,1.8,0.7,1.9,1.7v19.5c1.2-1.9,2.9-3.4,4.8-4.4
				c2.1-1,4.4-1.5,6.7-1.5c5,0,8.8,1.5,11.3,4.4c2.6,3,3.8,7.3,3.8,12.9v21.5c0.1,1-0.7,1.8-1.7,1.9h-10.3c-1,0.1-1.8-0.7-1.9-1.7
				V35.9c0.2-3.3-2.3-6.3-5.6-6.5C149.8,29.4,149.5,29.4,149.3,29.4L149.3,29.4L149.3,29.4z"/>
			<path class="st0" d="M172.9,38.3c-0.1-5.6,2.3-11,6.4-14.8c8.7-8.2,22.3-8.2,31,0c8.2,7.7,8.6,20.6,0.8,28.8
				c-0.3,0.3-0.6,0.6-0.8,0.8c-8.7,8.2-22.3,8.2-31,0C175.1,49.4,172.8,44,172.9,38.3z M186.8,38.3c-0.1,2.2,0.8,4.3,2.3,5.8
				c3,3.1,8.1,3.2,11.2,0.2c0.1-0.1,0.1-0.1,0.2-0.2c3.1-3.2,3.1-8.3,0-11.5c-3.1-3.1-8.1-3.2-11.2-0.1c0,0-0.1,0.1-0.1,0.1
				C187.6,34.1,186.7,36.2,186.8,38.3z"/>
			<path class="st0" d="M222.3,18.6h7.2c0.7,0,1.4,0.2,2,0.6c0.6,0.4,1.1,1,1.4,1.7l1.1,2.5c1.3-1.6,2.8-2.9,4.5-4
				c1.4-0.9,2.9-1.3,4.6-1.4c1.3-0.1,2.6,0.3,3.7,1.1c0.8,0.8,1.2,1.9,1,3l-1.1,9c-0.1,0.9-0.4,1.7-1,2.3c-0.6,0.5-1.3,0.8-2.1,0.8
				c-0.3,0-0.6,0-0.9-0.1c-0.3-0.1-0.8-0.2-1.5-0.4c-0.7-0.2-1.3-0.4-1.6-0.4c-0.4-0.1-0.7-0.1-1.1-0.1c-1.1,0-2.2,0.4-3.1,1.2
				c-0.8,0.8-1.2,1.9-1.2,3v19.1c0,0.5-0.2,0.9-0.6,1.2c-0.3,0.3-0.8,0.5-1.3,0.6h-10.1c-0.5,0-1-0.2-1.3-0.5
				c-0.4-0.4-0.5-0.8-0.5-1.3V20.4c0-0.5,0.2-1,0.5-1.3C221.3,18.7,221.8,18.5,222.3,18.6L222.3,18.6L222.3,18.6z"/>
			<path class="st1" d="M265.4,8.2c0,2-0.8,3.9-2.3,5.3c-3,3-7.9,3-10.9,0c-1.5-1.4-2.3-3.3-2.3-5.3c0-2,0.8-3.9,2.3-5.3
				c3-3,7.9-3,10.9,0C264.6,4.3,265.4,6.2,265.4,8.2z"/>
			<path class="st0" d="M303.1,29.4l-15.7,17H303c0.5,0,1,0.2,1.3,0.5c0.4,0.4,0.5,0.8,0.5,1.3v8.2c0,0.5-0.2,1-0.5,1.3
				c-0.4,0.4-0.8,0.5-1.3,0.5h-32.4c-0.5,0-1-0.2-1.4-0.6c-0.4-0.4-0.6-0.8-0.6-1.3v-6.7c0-0.4,0-0.8,0.2-1.2c0.2-0.4,0.4-0.7,0.7-1
				l16-17h-14.3c-0.5,0-1-0.2-1.3-0.6c-0.4-0.4-0.6-0.8-0.6-1.3v-8c0-1.1,0.8-1.9,1.9-1.9H302c0.5,0,1,0.2,1.3,0.6
				c0.4,0.4,0.6,0.9,0.6,1.4v6.7C304,28,303.7,28.7,303.1,29.4C303.1,29.3,303.1,29.4,303.1,29.4z"/>
			<path class="st0" d="M345.8,51.7c-1.8,2.5-4.3,4.4-7.1,5.5c-3.3,1.4-6.8,2.1-10.3,2.1c-6.3,0-11.5-2-15.5-5.9
				c-4-3.9-6.2-9.3-6.1-14.8c0-6.2,1.9-11.3,5.7-15.2c3.8-3.9,8.8-5.9,15-5.9c6,0,10.8,1.9,14.5,5.7c3.7,3.7,5.7,8.7,5.6,13.9v2.3
				c0,0.7-0.2,1.5-0.6,2.1c-0.4,0.5-1,0.8-1.6,0.8h-24.7c0.3,1.7,1.3,3.3,2.7,4.4c1.5,1.1,3.3,1.7,5.2,1.6c1.3,0,2.6-0.2,3.8-0.7
				c1.3-0.6,2.4-1.4,3.3-2.3c0.4-0.4,0.9-0.7,1.5-0.8c0.6,0,1.1,0.1,1.6,0.4l6.7,4.4c0.4,0.2,0.7,0.7,0.8,1.2
				C346.2,50.7,346.1,51.3,345.8,51.7z M320.9,33.2H334c-0.2-1.5-1-2.8-2.2-3.8c-1.2-1-2.7-1.5-4.2-1.4c-1.5,0-3.1,0.5-4.3,1.4
				C322.1,30.4,321.3,31.7,320.9,33.2z"/>
			<path class="st2" d="M368.1,50.4c0,4.9-4,8.9-8.9,8.9c-4.9,0-8.9-4-8.9-8.9c0-4.9,4-8.9,8.8-8.9
				C364.1,41.5,368.1,45.5,368.1,50.4L368.1,50.4L368.1,50.4z"/>
			<path class="st0" d="M392.6,29.4c-1.7-0.1-3.4,0.6-4.6,1.8c-1.3,1.3-1.9,3-1.8,4.7v20.3c0,1-0.7,1.8-1.7,1.9h-10.3
				c-1,0.1-1.8-0.7-1.9-1.7v-36c0-1,0.7-1.8,1.7-1.9h10.2c0.5,0,1,0.2,1.3,0.5c0.4,0.4,0.5,0.8,0.5,1.3v2.9c1.2-1.9,2.9-3.4,4.8-4.4
				c2.1-1,4.4-1.5,6.7-1.5c5,0,8.8,1.5,11.3,4.4c2.6,3,3.8,7.3,3.8,12.9v21.5c0.1,1-0.7,1.8-1.7,1.9h-10.3c-1,0.1-1.8-0.7-1.9-1.7
				V35.9c0.1-1.8-0.6-3.5-1.8-4.7C395.9,30,394.3,29.4,392.6,29.4z"/>
			<path class="st0" d="M455.3,51.7c-1.8,2.5-4.3,4.4-7.1,5.5c-3.3,1.4-6.8,2.1-10.3,2.1c-6.3,0-11.5-2-15.6-5.9
				c-4-3.9-6.2-9.3-6.1-14.8c0-6.2,1.9-11.3,5.7-15.2c3.8-3.9,8.8-5.9,15-5.9c6,0,10.8,1.9,14.5,5.7c3.7,3.7,5.7,8.7,5.6,13.9v2.3
				c0,0.7-0.2,1.5-0.6,2.1c-0.4,0.5-1,0.8-1.6,0.8h-24.7c0.3,1.7,1.3,3.3,2.7,4.4c1.5,1.1,3.3,1.7,5.2,1.6c1.3,0,2.6-0.2,3.8-0.7
				c1.3-0.6,2.4-1.4,3.3-2.3c0.8-0.9,2.1-1.1,3.1-0.3l6.7,4.4c0.4,0.2,0.7,0.7,0.8,1.2C455.7,50.7,455.6,51.3,455.3,51.7L455.3,51.7
				L455.3,51.7z M430.5,33.2h13.1c-0.3-1.5-1-2.8-2.2-3.8c-1.2-1-2.7-1.5-4.2-1.4c-1.5,0-3.1,0.5-4.3,1.4
				C431.7,30.4,430.8,31.7,430.5,33.2z"/>
			<path class="st0" d="M478.2,58.9c-4.3,0-7.8-1.1-10.4-3.4c-2.6-2.3-3.9-5.4-3.9-9.4V30h-4.1c-0.5,0-1-0.2-1.3-0.6
				c-0.4-0.4-0.5-0.9-0.5-1.4v-2.9c0-0.7,0.1-1.4,0.2-2c0.2-0.6,0.5-1.1,0.9-1.5l9.8-10.9c0.6-0.7,1.3-1.3,2.1-1.8
				c0.7-0.3,1.4-0.4,2.2-0.4h2.7c0.5,0,1,0.2,1.3,0.5c0.4,0.4,0.6,0.8,0.5,1.3v8.1h8.7c0.5,0,1,0.2,1.3,0.5c0.4,0.4,0.6,0.8,0.6,1.3
				v7.7c0,0.5-0.2,1-0.6,1.4c-0.4,0.4-0.8,0.6-1.3,0.6h-8.7v13.2c-0.1,0.8,0.2,1.7,0.8,2.3c0.6,0.6,1.3,0.9,2.1,0.8
				c0.6,0,1.1-0.1,1.7-0.3c0.7-0.3,1.4-0.6,2.1-1c0.9-0.8,2.4-0.7,3.2,0.3c0.1,0.1,0.2,0.3,0.3,0.5l3.5,5.2c0.4,0.5,0.6,1.2,0.6,1.8
				c0,0.6-0.3,1.2-0.7,1.6c-1.6,1.5-3.5,2.7-5.6,3.4C483.2,58.5,480.7,58.9,478.2,58.9L478.2,58.9L478.2,58.9z"/>
			<path class="st0" d="M264.5,20.4v35.9c0,0.5-0.2,1-0.5,1.3c-0.4,0.4-0.9,0.6-1.4,0.5h-10c-0.5,0-1-0.2-1.4-0.5
				c-0.4-0.4-0.6-0.8-0.5-1.3V20.4c0-0.5,0.2-1,0.5-1.3c0.4-0.4,0.9-0.6,1.4-0.5h10c0.5,0,1,0.2,1.4,0.5
				C264.3,19.4,264.5,19.9,264.5,20.4z"/>
		</g>
	</g>
</g>
</svg>
